<svg width="24" height="24" viewBox="0 0 24 24" fill="none" xmlns="http://www.w3.org/2000/svg">
<path d="M24 6C24 2.69196 21.3085 0 18 0C15.5788 0 13.4931 1.44455 12.5458 3.51442L10.6402 2.64844C10.415 2.54632 10.1564 2.54632 9.93122 2.64844L0.502651 6.93415C0.196289 7.0731 0 7.37779 0 7.71429V18.8571C0 19.1936 0.196289 19.4983 0.502651 19.6373L9.93122 23.923C10.0438 23.9741 10.1648 24 10.2857 24C10.4067 24 10.5276 23.9741 10.6402 23.923L20.0688 19.6373C20.3751 19.4983 20.5714 19.1936 20.5714 18.8571V11.4128C22.595 10.4473 24 8.38712 24 6ZM10.2857 4.37026L12.0631 5.17765C12.0259 5.44723 12 5.72032 12 6C12 7.39448 12.4824 8.67616 13.2835 9.69617L10.2857 11.0583L2.92843 7.71429L10.2857 4.37026ZM1.71429 9.04515L9.42857 12.5517V21.8116L1.71429 18.3055V9.04515ZM18.8571 18.3055L11.1429 21.8116V12.5517L14.6352 10.9645C15.5955 11.6175 16.7537 12 18 12C18.2918 12 18.5764 11.972 18.8571 11.9315V18.3055ZM18 10.2857C15.637 10.2857 13.7143 8.363 13.7143 6C13.7143 3.637 15.637 1.71429 18 1.71429C20.363 1.71429 22.2857 3.637 22.2857 6C22.2857 8.363 20.363 10.2857 18 10.2857Z" fill="#727272"/>
<path d="M20.572 5.14296H18.8577V3.42868C18.8577 2.9549 18.4739 2.57153 18.0006 2.57153C17.5272 2.57153 17.1434 2.9549 17.1434 3.42868V5.14296H15.4292C14.9558 5.14296 14.572 5.52633 14.572 6.0001C14.572 6.47388 14.9558 6.85725 15.4292 6.85725H17.1434V8.57153C17.1434 9.04531 17.5272 9.42868 18.0006 9.42868C18.4739 9.42868 18.8577 9.04531 18.8577 8.57153V6.85725H20.572C21.0454 6.85725 21.4292 6.47388 21.4292 6.0001C21.4292 5.52633 21.0454 5.14296 20.572 5.14296Z" fill="#727272"/>
</svg>
