<svg width="20" height="20" viewBox="0 0 20 20" fill="none" xmlns="http://www.w3.org/2000/svg">
<path d="M7.22991 4.49011C7.28479 4.78323 7.57557 5.0144 7.91858 4.95026C8.25163 4.88073 8.44104 4.5614 8.37874 4.2612C8.30557 3.91214 7.96081 3.71768 7.63417 3.81511C7.34241 3.90218 7.16983 4.20347 7.22991 4.49011Z" fill="#FB6C00"/>
<path d="M19.8531 12.6742C16.6648 3.39327 16.8841 4.02914 16.8705 3.99754C16.5386 3.22943 15.8943 2.63231 15.1029 2.35922C14.9895 2.32011 8.57195 0.818899 8.38648 0.754679C7.81767 0.557681 7.02742 0.668114 6.47264 1.17836L0.972917 6.23901C0.354619 6.8077 0 7.61725 0 8.46016V17.4217C0 18.4778 0.854594 19.337 1.90505 19.337H13.6712C14.7217 19.337 15.5762 18.4778 15.5762 17.4217V16.5555L18.8558 15.152C19.8093 14.7394 20.2529 13.6319 19.8531 12.6742ZM13.6712 18.1651H1.90505C1.50078 18.1651 1.17191 17.8316 1.17191 17.4217V8.46016C1.17191 7.94417 1.38855 7.44893 1.76634 7.10145C6.47818 2.76587 3.56576 5.47016 7.28481 2.04042C7.47876 1.86166 7.74654 1.78986 8.01213 1.86994C8.24952 1.94084 7.83064 1.59966 13.81 7.10153C14.1877 7.44896 14.4043 7.94417 14.4043 8.46016V17.4217C14.4043 17.8316 14.0754 18.1651 13.6712 18.1651ZM18.3926 14.0755L15.5762 15.2808V8.46016C15.5762 7.61725 15.2216 6.8077 14.6034 6.23909L10.5076 2.47035L14.7461 3.47608C15.2088 3.64355 15.5859 3.9941 15.7863 4.44318C18.9685 13.7064 18.7539 13.0847 18.7678 13.1168C18.9278 13.4866 18.7585 13.9171 18.3926 14.0755Z" fill="#FB6C00"/>
<path d="M9.45184 7.90248C9.15351 7.77725 8.81002 7.91772 8.68478 8.21609L5.83225 15.0147C5.66951 15.4026 5.95698 15.8275 6.3723 15.8275C6.60125 15.8275 6.81876 15.6925 6.9129 15.4682L9.76544 8.66954C9.89064 8.37109 9.75024 8.02768 9.45184 7.90248Z" fill="#FB6C00"/>
<path d="M6.70566 9.59075C6.70566 8.45986 5.87739 7.53979 4.85928 7.53979C3.84117 7.53979 3.01294 8.45986 3.01294 9.59075C3.01294 10.7216 3.8412 11.6417 4.85932 11.6417C5.87743 11.6417 6.70566 10.7216 6.70566 9.59075ZM4.85932 10.4698C4.49372 10.4698 4.18485 10.0672 4.18485 9.59075C4.18485 9.11425 4.49368 8.7117 4.85932 8.7117C5.22495 8.7117 5.53379 9.11425 5.53379 9.59075C5.53375 10.0672 5.22491 10.4698 4.85932 10.4698Z" fill="#FB6C00"/>
<path d="M10.7718 12.1882C9.75368 12.1882 8.92542 13.1083 8.92542 14.2392C8.92542 15.3701 9.75368 16.2901 10.7718 16.2901C11.7899 16.2901 12.6182 15.3701 12.6182 14.2392C12.6182 13.1083 11.7899 12.1882 10.7718 12.1882ZM10.7718 15.1182C10.4062 15.1182 10.0973 14.7157 10.0973 14.2392C10.0973 13.7627 10.4062 13.3601 10.7718 13.3601C11.1374 13.3601 11.4463 13.7627 11.4463 14.2392C11.4463 14.7157 11.1374 15.1182 10.7718 15.1182Z" fill="#FB6C00"/>
</svg>
