<svg width="20" height="20" viewBox="0 0 20 20" fill="none" xmlns="http://www.w3.org/2000/svg">
<path d="M8.04902 3.41463H11.9515C11.9515 2.89714 11.7459 2.40084 11.38 2.03491C11.014 1.66899 10.5177 1.46341 10.0002 1.46341C9.48274 1.46341 8.98644 1.66899 8.62052 2.03491C8.25459 2.40084 8.04902 2.89714 8.04902 3.41463ZM6.5856 3.41463C6.5856 2.96622 6.67393 2.52219 6.84553 2.10791C7.01713 1.69363 7.26865 1.3172 7.58573 1.00012C7.9028 0.683045 8.27923 0.431525 8.69351 0.259924C9.1078 0.0883221 9.55182 0 10.0002 0C10.4487 0 10.8927 0.0883221 11.307 0.259924C11.7212 0.431525 12.0977 0.683045 12.4147 1.00012C12.7318 1.3172 12.9833 1.69363 13.1549 2.10791C13.3265 2.52219 13.4149 2.96622 13.4149 3.41463H19.0246C19.2187 3.41463 19.4048 3.49172 19.542 3.62895C19.6792 3.76617 19.7563 3.95228 19.7563 4.14634C19.7563 4.3404 19.6792 4.52652 19.542 4.66374C19.4048 4.80096 19.2187 4.87805 19.0246 4.87805H17.7368L16.5954 16.6937C16.5078 17.599 16.0861 18.4393 15.4126 19.0506C14.7391 19.6619 13.862 20.0003 12.9524 20H7.04804C6.13864 20.0001 5.2618 19.6615 4.58848 19.0502C3.91516 18.439 3.49364 17.5988 3.40609 16.6937L2.26365 4.87805H0.975848C0.781787 4.87805 0.595674 4.80096 0.458453 4.66374C0.321231 4.52652 0.244141 4.3404 0.244141 4.14634C0.244141 3.95228 0.321231 3.76617 0.458453 3.62895C0.595674 3.49172 0.781787 3.41463 0.975848 3.41463H6.5856ZM8.53682 8.04878C8.53682 7.85472 8.45973 7.66861 8.32251 7.53139C8.18529 7.39416 7.99918 7.31707 7.80512 7.31707C7.61105 7.31707 7.42494 7.39416 7.28772 7.53139C7.1505 7.66861 7.07341 7.85472 7.07341 8.04878V15.3659C7.07341 15.5599 7.1505 15.746 7.28772 15.8833C7.42494 16.0205 7.61105 16.0976 7.80512 16.0976C7.99918 16.0976 8.18529 16.0205 8.32251 15.8833C8.45973 15.746 8.53682 15.5599 8.53682 15.3659V8.04878ZM12.1954 7.31707C12.3894 7.31707 12.5755 7.39416 12.7128 7.53139C12.85 7.66861 12.9271 7.85472 12.9271 8.04878V15.3659C12.9271 15.5599 12.85 15.746 12.7128 15.8833C12.5755 16.0205 12.3894 16.0976 12.1954 16.0976C12.0013 16.0976 11.8152 16.0205 11.678 15.8833C11.5407 15.746 11.4637 15.5599 11.4637 15.3659V8.04878C11.4637 7.85472 11.5407 7.66861 11.678 7.53139C11.8152 7.39416 12.0013 7.31707 12.1954 7.31707ZM4.86268 16.5532C4.9153 17.0962 5.16828 17.6002 5.5723 17.9669C5.97633 18.3336 6.50243 18.5367 7.04804 18.5366H12.9524C13.498 18.5367 14.0241 18.3336 14.4282 17.9669C14.8322 17.6002 15.0852 17.0962 15.1378 16.5532L16.2676 4.87805H3.73292L4.86268 16.5532Z" fill="#FF4737"/>
</svg>
