<svg width="24" height="24" viewBox="0 0 24 24" fill="none" xmlns="http://www.w3.org/2000/svg">
<path d="M8.99023 14.99L14.9902 8.98999" stroke="#FB6C00" stroke-width="2" stroke-linecap="round" stroke-linejoin="round"/>
<path d="M9.49023 9.98999C9.76638 9.98999 9.99023 9.76613 9.99023 9.48999C9.99023 9.21385 9.76638 8.98999 9.49023 8.98999C9.21409 8.98999 8.99023 9.21385 8.99023 9.48999C8.99023 9.76613 9.21409 9.98999 9.49023 9.98999Z" fill="#FB6C00" stroke="#FB6C00" stroke-width="2" stroke-linecap="round" stroke-linejoin="round"/>
<path d="M14.4902 14.99C14.7664 14.99 14.9902 14.7661 14.9902 14.49C14.9902 14.2138 14.7664 13.99 14.4902 13.99C14.2141 13.99 13.9902 14.2138 13.9902 14.49C13.9902 14.7661 14.2141 14.99 14.4902 14.99Z" fill="#FB6C00" stroke="#FB6C00" stroke-width="2" stroke-linecap="round" stroke-linejoin="round"/>
<path d="M3.43102 6.12029C3.43102 5.40705 3.71436 4.72303 4.21869 4.21869C4.72303 3.71436 5.40705 3.43102 6.12029 3.43102H7.34268C8.05277 3.43062 8.73388 3.14939 9.23739 2.64869L10.0931 1.79302C10.343 1.54169 10.6401 1.34225 10.9674 1.20616C11.2946 1.07006 11.6456 1 12 1C12.3544 1 12.7054 1.07006 13.0326 1.20616C13.3599 1.34225 13.657 1.54169 13.9069 1.79302L14.7626 2.64869C15.2661 3.14939 15.9472 3.43062 16.6573 3.43102H17.8797C18.5929 3.43102 19.277 3.71436 19.7813 4.21869C20.2856 4.72303 20.569 5.40705 20.569 6.12029V7.34268C20.5694 8.05277 20.8506 8.73388 21.3513 9.23739L22.207 10.0931C22.4583 10.343 22.6577 10.6401 22.7938 10.9674C22.9299 11.2946 23 11.6456 23 12C23 12.3544 22.9299 12.7054 22.7938 13.0326C22.6577 13.3599 22.4583 13.657 22.207 13.9069L21.3513 14.7626C20.8506 15.2661 20.5694 15.9472 20.569 16.6573V17.8797C20.569 18.5929 20.2856 19.277 19.7813 19.7813C19.277 20.2856 18.5929 20.569 17.8797 20.569H16.6573C15.9472 20.5694 15.2661 20.8506 14.7626 21.3513L13.9069 22.207C13.657 22.4583 13.3599 22.6577 13.0326 22.7938C12.7054 22.9299 12.3544 23 12 23C11.6456 23 11.2946 22.9299 10.9674 22.7938C10.6401 22.6577 10.343 22.4583 10.0931 22.207L9.23739 21.3513C8.73388 20.8506 8.05277 20.5694 7.34268 20.569H6.12029C5.40705 20.569 4.72303 20.2856 4.21869 19.7813C3.71436 19.277 3.43102 18.5929 3.43102 17.8797V16.6573C3.43062 15.9472 3.14939 15.2661 2.64869 14.7626L1.79302 13.9069C1.54169 13.657 1.34225 13.3599 1.20616 13.0326C1.07006 12.7054 1 12.3544 1 12C1 11.6456 1.07006 11.2946 1.20616 10.9674C1.34225 10.6401 1.54169 10.343 1.79302 10.0931L2.64869 9.23739C3.14939 8.73388 3.43062 8.05277 3.43102 7.34268V6.12029" stroke="#FB6C00" stroke-width="2" stroke-linecap="round" stroke-linejoin="round"/>
</svg>
