<svg width="24" height="24" viewBox="0 0 24 24" fill="none" xmlns="http://www.w3.org/2000/svg">
<path fill-rule="evenodd" clip-rule="evenodd" d="M18.5345 3.71428C18.3045 3.71428 18.0768 3.75958 17.8643 3.84759C17.6519 3.93559 17.4588 4.06459 17.2962 4.22721L5.0075 16.5159L4.07878 19.9212L7.4841 18.9925L19.7728 6.70381C19.9354 6.54119 20.0644 6.34814 20.1524 6.13567C20.2404 5.9232 20.2857 5.69548 20.2857 5.46551C20.2857 5.23553 20.2404 5.00781 20.1524 4.79534C20.0644 4.58288 19.9354 4.38982 19.7728 4.22721C19.6102 4.06459 19.4171 3.93559 19.2047 3.84759C18.9922 3.75958 18.7645 3.71428 18.5345 3.71428ZM17.2083 2.2638C17.6288 2.08964 18.0794 2 18.5345 2C18.9896 2 19.4402 2.08964 19.8607 2.2638C20.2811 2.43795 20.6632 2.69322 20.985 3.01502C21.3068 3.33682 21.562 3.71886 21.7362 4.13931C21.9104 4.55977 22 5.01041 22 5.46551C22 5.9206 21.9104 6.37124 21.7362 6.7917C21.562 7.21215 21.3068 7.59419 20.985 7.91599L8.53533 20.3656C8.42985 20.4711 8.29868 20.5472 8.15477 20.5865L3.08269 21.9698C2.78594 22.0507 2.46857 21.9664 2.25107 21.7489C2.03357 21.5314 1.94929 21.2141 2.03022 20.9173L3.41352 15.8452C3.45276 15.7013 3.52889 15.5701 3.63436 15.4647L16.084 3.01502C16.4058 2.69322 16.7878 2.43795 17.2083 2.2638Z" fill="#FB6C00"/>
</svg>
