<svg width="20" height="20" viewBox="0 0 20 20" fill="none" xmlns="http://www.w3.org/2000/svg">
<g clip-path="url(#clip0_1131_212)">
<path d="M10.9166 0.833313C8.90141 0.843121 6.94638 1.52116 5.35783 2.76121C3.76928 4.00126 2.63697 5.73324 2.1383 7.68581L1.5283 6.76331C1.47055 6.66673 1.39384 6.58285 1.30279 6.51672C1.21174 6.45059 1.10825 6.40359 0.998541 6.37854C0.888835 6.3535 0.775193 6.35093 0.664469 6.371C0.553744 6.39106 0.44823 6.43335 0.35429 6.4953C0.26035 6.55725 0.17993 6.63758 0.11788 6.73146C0.0558295 6.82533 0.0134343 6.9308 -0.00674928 7.0415C-0.0269328 7.15221 -0.0244865 7.26585 0.000442073 7.37558C0.0253707 7.48532 0.0722652 7.58886 0.138298 7.67998L1.97163 10.4583C2.09898 10.6365 2.28674 10.7624 2.49996 10.8125C2.71769 10.8557 2.94367 10.8123 3.12996 10.6916L5.87996 8.83915C5.97478 8.77994 6.05672 8.70225 6.12089 8.61072C6.18507 8.51919 6.23017 8.41569 6.25352 8.30637C6.27687 8.19705 6.27798 8.08415 6.2568 7.97439C6.23561 7.86463 6.19256 7.76025 6.1302 7.66747C6.06785 7.57469 5.98746 7.49541 5.89383 7.43434C5.8002 7.37326 5.69524 7.33166 5.5852 7.31199C5.47516 7.29231 5.36229 7.29498 5.2533 7.31984C5.14431 7.34469 5.04143 7.39122 4.9508 7.45665L3.69996 8.29998C4.03287 6.94864 4.73891 5.71808 5.73753 4.7487C6.73616 3.77932 7.98716 3.11017 9.3478 2.81757C10.7084 2.52498 12.1239 2.62074 13.4328 3.09392C14.7416 3.56709 15.8911 4.39864 16.75 5.49368C17.609 6.58872 18.1429 7.90316 18.2908 9.28703C18.4386 10.6709 18.1945 12.0685 17.5863 13.3203C16.9781 14.5721 16.0303 15.6277 14.851 16.3668C13.6717 17.1058 12.3084 17.4985 10.9166 17.5C9.72358 17.4968 8.54895 17.2055 7.49259 16.651C6.43623 16.0965 5.52938 15.2951 4.84913 14.315C4.78821 14.2214 4.70911 14.1411 4.61653 14.0787C4.52395 14.0163 4.41978 13.9731 4.3102 13.9518C4.20062 13.9304 4.08787 13.9313 3.97864 13.9544C3.86941 13.9775 3.76593 14.0222 3.67434 14.0861C3.58275 14.1499 3.50492 14.2315 3.44547 14.326C3.38602 14.4205 3.34616 14.526 3.32827 14.6362C3.31037 14.7463 3.3148 14.859 3.34129 14.9675C3.36777 15.0759 3.41578 15.1779 3.48246 15.2675C4.58835 16.8618 6.17649 18.0593 8.01347 18.684C9.85045 19.3088 11.8394 19.3278 13.688 18.7383C15.5366 18.1487 17.1473 16.9818 18.2834 15.4089C19.4196 13.836 20.0212 11.9402 20 9.99998C20.0082 7.58074 19.0565 5.25702 17.3536 3.53855C15.6508 1.82009 13.3358 0.847202 10.9166 0.833313V0.833313Z" fill="#FB6C00"/>
<path d="M10.8333 4.95831C10.6123 4.95831 10.4004 5.04611 10.2441 5.20239C10.0878 5.35867 10 5.57063 10 5.79165V9.99998C10.0035 10.2203 10.0909 10.4309 10.2442 10.5891L12.7442 13.1116C12.901 13.2661 13.112 13.3531 13.3321 13.3542C13.5523 13.3553 13.7641 13.2703 13.9225 13.1175C14.0794 12.9619 14.1681 12.7503 14.169 12.5293C14.1699 12.3084 14.0831 12.0961 13.9275 11.9391L11.6667 9.65748V5.79165C11.6667 5.57063 11.5789 5.35867 11.4226 5.20239C11.2663 5.04611 11.0543 4.95831 10.8333 4.95831V4.95831Z" fill="#FB6C00"/>
</g>
<defs>
<clipPath id="clip0_1131_212">
<rect width="20" height="20" fill="white"/>
</clipPath>
</defs>
</svg>
