<svg width="20" height="20" viewBox="0 0 20 20" fill="none" xmlns="http://www.w3.org/2000/svg">
<path d="M10.9169 0.833252C8.90166 0.84306 6.94662 1.5211 5.35807 2.76115C3.76952 4.00119 2.63721 5.73318 2.13854 7.68575L1.52854 6.76325C1.47079 6.66667 1.39408 6.58279 1.30304 6.51666C1.21199 6.45053 1.10849 6.40353 0.998785 6.37848C0.889079 6.35344 0.775438 6.35087 0.664713 6.37094C0.553988 6.391 0.448474 6.43329 0.354534 6.49524C0.260594 6.55719 0.180174 6.63752 0.118124 6.7314C0.0560737 6.82527 0.0136784 6.93074 -0.00650514 7.04144C-0.0266887 7.15215 -0.0242424 7.26579 0.000686213 7.37552C0.0256148 7.48525 0.0725093 7.5888 0.138542 7.67992L1.97188 10.4583C2.09923 10.6365 2.28698 10.7623 2.50021 10.8124C2.71793 10.8556 2.94392 10.8123 3.13021 10.6916L5.88021 8.83909C5.97503 8.77987 6.05696 8.70219 6.12114 8.61066C6.18531 8.51913 6.23041 8.41563 6.25376 8.30631C6.27711 8.19699 6.27822 8.08409 6.25704 7.97433C6.23585 7.86456 6.1928 7.76019 6.13045 7.66741C6.06809 7.57463 5.98771 7.49535 5.89408 7.43428C5.80045 7.3732 5.69549 7.33159 5.58545 7.31192C5.4754 7.29225 5.36253 7.29492 5.25354 7.31978C5.14455 7.34463 5.04168 7.39115 4.95104 7.45659L3.70021 8.29992C4.03311 6.94858 4.73915 5.71802 5.73778 4.74864C6.73641 3.77926 7.9874 3.11011 9.34804 2.81751C10.7087 2.52492 12.1242 2.62068 13.433 3.09385C14.7418 3.56703 15.8913 4.39858 16.7503 5.49362C17.6093 6.58866 18.1431 7.9031 18.291 9.28697C18.4389 10.6708 18.1948 12.0684 17.5866 13.3202C16.9784 14.572 16.0305 15.6277 14.8512 16.3667C13.6719 17.1057 12.3086 17.4984 10.9169 17.4999C9.72383 17.4967 8.54919 17.2055 7.49283 16.6509C6.43647 16.0964 5.52962 15.295 4.84937 14.3149C4.78845 14.2214 4.70935 14.141 4.61677 14.0786C4.52419 14.0162 4.42002 13.9731 4.31044 13.9517C4.20087 13.9304 4.08811 13.9313 3.97888 13.9543C3.86965 13.9774 3.76617 14.0222 3.67458 14.086C3.58299 14.1498 3.50516 14.2314 3.44571 14.3259C3.38626 14.4204 3.34641 14.5259 3.32851 14.6361C3.31061 14.7463 3.31504 14.859 3.34153 14.9674C3.36802 15.0759 3.41603 15.1779 3.48271 15.2674C4.5886 16.8617 6.17674 18.0592 8.01372 18.684C9.8507 19.3087 11.8396 19.3277 13.6882 18.7382C15.5368 18.1487 17.1475 16.9817 18.2837 15.4088C19.4198 13.836 20.0215 11.9401 20.0002 9.99992C20.0084 7.58068 19.0567 5.25696 17.3539 3.53849C15.651 1.82002 13.3361 0.847141 10.9169 0.833252Z" fill="#727272"/>
<path d="M10.8333 4.95825C10.6123 4.95825 10.4004 5.04605 10.2441 5.20233C10.0878 5.35861 10 5.57057 10 5.79159V9.99992C10.0035 10.2202 10.0909 10.4309 10.2442 10.5891L12.7442 13.1116C12.901 13.266 13.112 13.353 13.3321 13.3541C13.5523 13.3552 13.7641 13.2703 13.9225 13.1174C14.0794 12.9618 14.1681 12.7503 14.169 12.5293C14.1699 12.3083 14.0831 12.096 13.9275 11.9391L11.6667 9.65742V5.79159C11.6667 5.57057 11.5789 5.35861 11.4226 5.20233C11.2663 5.04605 11.0543 4.95825 10.8333 4.95825Z" fill="#727272"/>
</svg>
