<svg width="200" height="42" viewBox="0 0 200 42" fill="none" xmlns="http://www.w3.org/2000/svg">
<g clip-path="url(#clip0_1064_1811)">
<path d="M30.1762 19.151C28.2502 19.3694 26.3068 20.9634 26.3057 22.9057C26.3057 24.7618 26.3057 31.27 26.3057 32.7079C26.2928 33.7502 25.894 34.7507 25.1864 35.5161C24.4788 36.2816 23.5127 36.7576 22.4746 36.8523C22.4746 36.8611 22.4746 36.8676 22.4746 36.8763C22.4926 37.9997 22.9514 39.0711 23.7522 39.8591C24.553 40.6472 25.6315 41.0889 26.755 41.0889C27.8785 41.0889 28.957 40.6472 29.7578 39.8591C30.5586 39.0711 31.0175 37.9997 31.0354 36.8763C31.0354 32.5659 28.5625 27.3056 28.5625 21.8587C28.7321 20.7821 29.31 19.8124 30.1762 19.151Z" fill="#FB6C00"/>
<path d="M26.9139 19.8411C26.9912 19.8393 27.0663 19.8148 27.1298 19.7706C27.1933 19.7264 27.2423 19.6644 27.2707 19.5925C27.2991 19.5205 27.3057 19.4418 27.2895 19.3661C27.2734 19.2905 27.2353 19.2212 27.18 19.1671C27.1247 19.113 27.0547 19.0765 26.9787 19.062C26.9027 19.0475 26.8241 19.0558 26.7528 19.0858C26.6815 19.1158 26.6206 19.1661 26.5778 19.2306C26.535 19.295 26.5121 19.3706 26.5121 19.448C26.5127 19.5002 26.5235 19.5518 26.544 19.5998C26.5645 19.6478 26.5943 19.6912 26.6316 19.7277C26.6689 19.7642 26.713 19.793 26.7614 19.8125C26.8099 19.8319 26.8617 19.8416 26.9139 19.8411Z" fill="#FB6C00"/>
<path d="M27.9806 19.2384C28.058 19.2367 28.1331 19.2122 28.1966 19.1679C28.2601 19.1237 28.3091 19.0618 28.3375 18.9898C28.3659 18.9178 28.3724 18.8391 28.3563 18.7634C28.3402 18.6878 28.3021 18.6186 28.2468 18.5645C28.1915 18.5104 28.1214 18.4738 28.0454 18.4593C27.9694 18.4449 27.8909 18.4531 27.8195 18.4831C27.7482 18.5131 27.6874 18.5635 27.6445 18.6279C27.6017 18.6923 27.5789 18.768 27.5789 18.8453C27.5794 18.8975 27.5903 18.9491 27.6108 18.9971C27.6313 19.0451 27.661 19.0886 27.6983 19.1251C27.7356 19.1616 27.7798 19.1904 27.8282 19.2098C27.8767 19.2293 27.9284 19.239 27.9806 19.2384Z" fill="#FB6C00"/>
<path d="M29.0844 18.793C29.1617 18.7912 29.2369 18.7667 29.3003 18.7225C29.3638 18.6783 29.4128 18.6163 29.4412 18.5444C29.4697 18.4724 29.4762 18.3937 29.4601 18.318C29.4439 18.2424 29.4058 18.1731 29.3505 18.119C29.2952 18.0649 29.2252 18.0284 29.1492 18.0139C29.0732 17.9994 28.9946 18.0077 28.9233 18.0377C28.852 18.0677 28.7911 18.118 28.7483 18.1825C28.7055 18.2469 28.6826 18.3225 28.6826 18.3999C28.6832 18.4521 28.694 18.5037 28.7145 18.5517C28.735 18.5997 28.7648 18.6432 28.8021 18.6797C28.8394 18.7161 28.8835 18.7449 28.932 18.7644C28.9804 18.7838 29.0322 18.7935 29.0844 18.793Z" fill="#FB6C00"/>
<path d="M0 29.1934C0.00838398 29.6606 0.108708 30.1216 0.295243 30.55C0.481778 30.9784 0.750872 31.3659 1.08716 31.6903C1.42345 32.0147 1.82034 32.2697 2.25519 32.4408C2.69003 32.6118 3.1543 32.6955 3.6215 32.6871C3.88718 32.6876 4.15215 32.6598 4.41196 32.6042C6.28614 32.1968 8.19865 31.9918 10.1166 31.9928C14.4713 31.9835 18.7604 33.0537 22.6002 35.1077C21.491 33.9842 14.7982 25.0315 3.61713 25.6996C2.6745 25.6844 1.76433 26.0437 1.08624 26.6987C0.408153 27.3536 0.0175125 28.2508 0 29.1934H0ZM2.45873 29.3997C2.73554 28.8666 3.12818 28.4022 3.60786 28.0406C4.08753 27.679 4.64208 27.4294 5.23081 27.31V27.3242C4.74686 27.8199 4.38404 28.4208 4.17067 29.0798C4.14913 29.1456 4.14578 29.2159 4.16096 29.2833C4.17615 29.3508 4.20931 29.4129 4.25692 29.4631C4.73346 29.9742 5.31998 30.3703 5.97214 30.6215V30.6357C5.38312 30.7679 4.77219 30.7687 4.18284 30.6379C3.59349 30.5072 3.04023 30.248 2.56245 29.879C2.49169 29.824 2.44253 29.7458 2.42356 29.6582C2.4046 29.5706 2.41705 29.4791 2.45873 29.3997Z" fill="#FB6C00"/>
<path d="M4.33319 20.9841C4.49615 21.0099 4.66065 21.0248 4.82559 21.0288C5.88165 21.0491 6.93511 21.141 7.97871 21.304C11.2101 21.8351 14.2936 23.0398 17.0292 24.8398C19.7649 26.6399 22.0914 28.995 23.8578 31.7525C23.1845 27.1419 21.0479 22.8695 17.7629 19.565C14.4779 16.2605 10.2182 14.0988 5.61169 13.3983C4.61069 13.2432 3.58898 13.4905 2.76971 14.0862C1.95043 14.6818 1.40015 15.5775 1.23904 16.5776C1.15135 17.0702 1.16193 17.5753 1.27016 18.0639C1.3784 18.5524 1.58216 19.0148 1.86971 19.4243C2.15727 19.8338 2.52295 20.1824 2.94573 20.4501C3.36851 20.7178 3.84003 20.8993 4.33319 20.9841ZM3.72397 16.8571C4.16567 16.4363 4.69722 16.1215 5.27845 15.9363C5.85968 15.7512 6.47539 15.7005 7.07907 15.7882V15.8024C6.43773 16.1234 5.87773 16.586 5.44137 17.1551C5.39691 17.2124 5.36793 17.2801 5.35722 17.3518C5.34651 17.4235 5.35444 17.4968 5.38023 17.5646C5.63201 18.2334 6.03348 18.8358 6.55391 19.3256V19.3398C5.95056 19.2556 5.37452 19.0342 4.86997 18.6928C4.36542 18.3514 3.94576 17.899 3.64318 17.3702C3.5972 17.288 3.58017 17.1927 3.59482 17.0997C3.60947 17.0066 3.65495 16.9212 3.72397 16.8571Z" fill="#FB6C00"/>
<path d="M11.5884 7.75581C11.3942 8.51164 11.4587 9.31073 11.7715 10.0257C12.0844 10.7406 12.6276 11.3302 13.3145 11.7005C18.5828 14.7288 22.6172 19.5146 24.7107 25.2191C25.1108 21.7662 24.7751 18.2677 23.7258 14.9539C22.6766 11.64 20.9374 8.5859 18.6228 5.99255C18.0121 5.29102 17.1801 4.81916 16.2646 4.6551C15.2336 4.44952 14.1632 4.66021 13.2871 5.24117C12.4109 5.82212 11.8003 6.72613 11.5884 7.75581ZM14.9096 7.37258C15.5392 7.34159 16.1678 7.45 16.7506 7.69007C17.3334 7.93013 17.856 8.29594 18.2811 8.76135L18.2702 8.77118C17.5543 8.59536 16.808 8.58268 16.0866 8.73406C16.015 8.74832 15.9485 8.78129 15.8939 8.82962C15.8392 8.87796 15.7983 8.93992 15.7754 9.00919C15.5467 9.69277 15.4813 10.4204 15.5844 11.1338L15.5734 11.1437C15.1475 10.6909 14.8307 10.1467 14.6473 9.55268C14.464 8.95867 14.4189 8.33061 14.5155 7.7165C14.5313 7.62247 14.5793 7.53682 14.6511 7.47412C14.723 7.41143 14.8143 7.37555 14.9096 7.37258Z" fill="#FB6C00"/>
<path d="M27.9653 0.936523C27.4332 0.957096 26.9107 1.08411 26.4286 1.31006C25.9465 1.53602 25.5145 1.85632 25.1583 2.25205C24.802 2.64778 24.5287 3.1109 24.3545 3.61404C24.1803 4.11719 24.1087 4.65015 24.144 5.18144C24.144 7.41635 27.9653 16.689 27.9653 16.689C27.9653 16.689 31.7866 7.41635 31.7866 5.18144C31.8217 4.65019 31.75 4.11729 31.5758 3.6142C31.4015 3.11112 31.1282 2.64806 30.772 2.25236C30.4158 1.85667 29.9839 1.53636 29.5018 1.31036C29.0198 1.08436 28.4973 0.957244 27.9653 0.936523V0.936523ZM29.7733 6.25686C29.3588 5.65505 28.812 5.1561 28.1749 4.79821C28.1109 4.76174 28.0385 4.74257 27.9648 4.74257C27.8911 4.74257 27.8186 4.76174 27.7546 4.79821C27.1164 5.15592 26.5686 5.65486 26.1529 6.25686H26.1376C26.1355 5.63276 26.2752 5.01634 26.546 4.45407C26.8168 3.8918 27.2118 3.39835 27.7011 3.01094C27.776 2.95133 27.869 2.91888 27.9648 2.91888C28.0605 2.91888 28.1535 2.95133 28.2284 3.01094C28.7172 3.39863 29.1115 3.89221 29.3818 4.45447C29.6521 5.01674 29.7912 5.63302 29.7886 6.25686H29.7733Z" fill="#FB6C00"/>
<path d="M39.6662 4.65624C38.7504 4.81977 37.918 5.29126 37.3068 5.9926C34.9934 8.58628 33.2553 11.6404 32.207 14.954C31.1586 18.2677 30.8238 21.7657 31.2244 25.2181C33.3171 19.5146 37.3499 14.7293 42.6163 11.7005C43.3032 11.3302 43.8464 10.7406 44.1592 10.0257C44.4721 9.31078 44.5366 8.51169 44.3424 7.75585C44.1303 6.72638 43.5195 5.82264 42.6434 5.24191C41.7673 4.66118 40.697 4.45064 39.6662 4.65624ZM41.4131 7.71327C41.5095 8.32746 41.4642 8.95556 41.2806 9.54955C41.0971 10.1435 40.7802 10.6877 40.3541 11.1404L40.3431 11.1306C40.4465 10.4173 40.3815 9.68964 40.1532 9.00596C40.1301 8.93689 40.0891 8.87516 40.0345 8.82703C39.9798 8.7789 39.9134 8.74609 39.842 8.73192C39.1205 8.58054 38.3743 8.59323 37.6584 8.76904L37.6475 8.75922C38.0726 8.2938 38.5952 7.928 39.178 7.68793C39.7608 7.44786 40.3894 7.33946 41.019 7.37045C41.1143 7.3738 41.2055 7.41014 41.277 7.47327C41.3484 7.53639 41.3958 7.62238 41.4109 7.71655L41.4131 7.71327Z" fill="#FB6C00"/>
<path d="M54.6914 16.5776C54.53 15.5778 53.9797 14.6823 53.1604 14.0869C52.3412 13.4914 51.3196 13.2443 50.3188 13.3994C45.7118 14.0996 41.4517 16.2614 38.1664 19.5661C34.8811 22.8708 32.7445 27.1437 32.0715 31.7547C34.1056 28.5288 36.9102 25.8595 40.2325 23.9872C43.5549 22.1148 47.2908 21.0982 51.1038 21.0289C51.2688 21.0238 51.4333 21.0077 51.5962 20.9808C52.0891 20.8961 52.5604 20.7149 52.9831 20.4475C53.4057 20.18 53.7714 19.8317 54.059 19.4226C54.3466 19.0134 54.5506 18.5514 54.6591 18.0632C54.7676 17.575 54.7786 17.0701 54.6914 16.5776ZM52.2895 17.3702C51.9874 17.8991 51.5682 18.3517 51.064 18.6933C50.5598 19.0349 49.984 19.2565 49.3809 19.3409V19.3267C49.9005 18.8375 50.3012 18.2359 50.5524 17.5679C50.5783 17.5001 50.5863 17.4268 50.5756 17.3551C50.5649 17.2834 50.5358 17.2157 50.4913 17.1584C50.0548 16.5894 49.4948 16.1269 48.8536 15.8057V15.7915C49.4577 15.7026 50.0741 15.7524 50.6561 15.937C51.2382 16.1216 51.7706 16.4363 52.213 16.8571C52.281 16.9221 52.3251 17.008 52.3384 17.101C52.3517 17.1941 52.3333 17.2889 52.2862 17.3702H52.2895Z" fill="#FB6C00"/>
<path d="M52.309 25.7007C41.1279 25.0326 34.4341 33.9853 33.3259 35.1077C37.1669 33.0523 41.4576 31.9813 45.8139 31.9906C47.7319 31.9897 49.6444 32.1947 51.5186 32.602C51.7784 32.6576 52.0433 32.6854 52.309 32.685C53.2356 32.685 54.1243 32.3169 54.7795 31.6617C55.4347 31.0065 55.8028 30.1178 55.8028 29.1912C55.8028 28.2646 55.4347 27.376 54.7795 26.7208C54.1243 26.0655 53.2356 25.6975 52.309 25.6975V25.7007ZM53.3637 29.8812C52.886 30.2503 52.3327 30.5095 51.7433 30.6402C51.154 30.771 50.543 30.7702 49.954 30.6378V30.6247C50.6062 30.3737 51.1927 29.9775 51.6692 29.4663C51.7168 29.4162 51.75 29.3541 51.7652 29.2866C51.7804 29.2192 51.777 29.1488 51.7555 29.0831C51.5424 28.4239 51.1795 27.823 50.6953 27.3275V27.3133C51.2837 27.4326 51.8379 27.6819 52.3173 28.0431C52.7968 28.4044 53.1894 28.8682 53.4663 29.4008C53.5076 29.4803 53.5198 29.5717 53.5009 29.6592C53.4819 29.7467 53.433 29.8248 53.3626 29.8801L53.3637 29.8812Z" fill="#FB6C00"/>
<path d="M162.198 29.6934V13.3263H165.952V29.6924L162.198 29.6934Z" fill="#FB6C00"/>
<path d="M142.993 13.3263H147.032L152.164 25.5217L157.413 13.3263H161.235L154.107 29.6924H150.406L142.993 13.3263Z" fill="#FB6C00"/>
<path d="M136.118 13.3263C136.291 13.3416 136.462 13.3492 136.628 13.3492C136.794 13.3492 136.965 13.3569 137.139 13.3721C137.785 13.4025 138.427 13.502 139.053 13.6691C139.673 13.834 140.242 14.1558 140.702 14.6037C141.125 14.9886 141.455 15.4636 141.668 15.9936C141.88 16.517 142.012 17.0689 142.062 17.6313C142.062 17.7404 142.062 17.8442 142.074 17.9501C142.086 18.056 142.086 18.163 142.086 18.2689C142.127 19.3131 141.84 20.344 141.266 21.2167C140.64 22.0867 139.7 22.6794 138.645 22.8697L142.897 29.6847H138.857L135.095 23.2649H130.867V29.6934H127.28V13.3263H136.118ZM135.263 16.2447H130.867V20.3706H135.263C135.292 20.3853 135.325 20.3931 135.358 20.3935H135.453C136.158 20.4025 136.859 20.2917 137.527 20.066C138.153 19.8476 138.457 19.2653 138.441 18.3191C138.441 17.3467 138.114 16.7615 137.459 16.5635C136.744 16.358 136.004 16.258 135.261 16.2665L135.263 16.2447Z" fill="#FB6C00"/>
<path d="M108.551 17.997C108.892 16.9329 109.49 15.9692 110.292 15.1911C111.147 14.4243 112.187 13.8937 113.309 13.6517C113.764 13.5498 114.234 13.4697 114.72 13.4115C115.203 13.3535 115.689 13.3243 116.175 13.3241C116.699 13.31 117.223 13.3318 117.744 13.3896C118.26 13.4449 118.771 13.5398 119.272 13.6735C120.383 13.9118 121.411 14.4391 122.253 15.202C123.054 15.9783 123.64 16.9488 123.954 18.0189C124.269 19.127 124.43 20.2732 124.432 21.4253C124.434 22.0384 124.398 22.651 124.323 23.2595C124.251 23.8367 124.129 24.4065 123.958 24.9627C123.65 26.0512 123.052 27.0358 122.229 27.8123C121.363 28.5716 120.311 29.0877 119.181 29.3081C118.686 29.4259 118.184 29.5098 117.678 29.5592C117.162 29.6101 116.639 29.636 116.107 29.6367C115.636 29.6365 115.165 29.6073 114.697 29.5493C114.227 29.4911 113.765 29.411 113.31 29.3091C112.187 29.0863 111.143 28.5702 110.284 27.8134C109.46 27.0373 108.863 26.0525 108.554 24.9638C108.395 24.4202 108.277 23.8655 108.202 23.3043C108.118 22.7038 108.076 22.0982 108.076 21.4919C108.074 20.8824 108.11 20.2734 108.185 19.6686C108.251 19.1082 108.373 18.5558 108.55 18.0199V17.9981L108.551 17.997ZM112.103 19.1107C111.996 19.5009 111.921 19.8988 111.875 20.3007C111.829 20.6957 111.806 21.0931 111.807 21.4908C111.806 21.896 111.832 22.3009 111.885 22.7027C111.937 23.0957 112.01 23.4856 112.104 23.8709C112.254 24.5055 112.537 25.101 112.935 25.6178C113.355 26.1363 113.921 26.5166 114.56 26.7096C114.828 26.7989 115.102 26.8647 115.381 26.9061C115.954 26.9935 116.537 26.9935 117.11 26.9061C117.388 26.8647 117.663 26.799 117.931 26.7096C118.572 26.5147 119.142 26.1349 119.568 25.6178C119.971 25.1055 120.251 24.508 120.387 23.8709C120.481 23.4856 120.553 23.0957 120.605 22.7027C120.658 22.3008 120.684 21.896 120.684 21.4908C120.684 21.0928 120.657 20.6953 120.605 20.3007C120.553 19.9077 120.48 19.5178 120.387 19.1325C120.249 18.4926 119.97 17.8919 119.568 17.3747C119.147 16.8544 118.575 16.4769 117.931 16.2938C117.663 16.2044 117.388 16.1387 117.11 16.0973C116.537 16.0101 115.954 16.0101 115.381 16.0973C115.102 16.1387 114.828 16.2045 114.56 16.2938C113.924 16.4856 113.361 16.8664 112.947 17.3856C112.554 17.9073 112.269 18.5008 112.105 19.1325L112.103 19.1107Z" fill="#FB6C00"/>
<path d="M89.3473 17.997C89.6872 16.9328 90.2846 15.969 91.0865 15.1911C91.9402 14.4244 92.9793 13.8938 94.101 13.6517C94.5559 13.5498 95.0261 13.4697 95.5116 13.4115C95.9945 13.3535 96.4805 13.3243 96.9669 13.3241C97.4915 13.3099 98.0164 13.3318 98.538 13.3896C99.0541 13.4446 99.5651 13.5395 100.067 13.6735C101.177 13.9113 102.206 14.4386 103.047 15.202C103.85 15.9775 104.439 16.9481 104.755 18.0189C104.91 18.5633 105.028 19.1178 105.107 19.6784C105.19 20.257 105.232 20.8408 105.233 21.4253C105.234 22.0385 105.195 22.6512 105.117 23.2595C105.046 23.8366 104.924 24.4065 104.755 24.9627C104.446 26.0512 103.848 27.0358 103.025 27.8123C102.158 28.5726 101.105 29.0895 99.9737 29.3102C99.4793 29.4284 98.9774 29.5123 98.4714 29.5614C97.9568 29.6123 97.4339 29.6381 96.9025 29.6389C96.431 29.6387 95.9599 29.6095 95.4919 29.5515C95.0202 29.4937 94.5595 29.414 94.1031 29.3113C92.9803 29.0877 91.9363 28.5717 91.0767 27.8156C90.2537 27.0391 89.6561 26.0545 89.3473 24.966C89.1881 24.4225 89.0703 23.8677 88.9946 23.3064C88.9106 22.706 88.8687 22.1004 88.8691 21.4941C88.8677 20.8846 88.9042 20.2757 88.9782 19.6708C89.0449 19.1105 89.167 18.5582 89.3429 18.0221L89.3473 17.997ZM92.8967 19.1107C92.7906 19.5009 92.7147 19.8988 92.6696 20.3007C92.6244 20.6958 92.6014 21.0931 92.6008 21.4908C92.6005 21.8961 92.6271 22.3009 92.6805 22.7027C92.7326 23.0957 92.8055 23.4856 92.8989 23.8709C93.0495 24.5053 93.3327 25.1006 93.7297 25.6178C94.1509 26.1364 94.718 26.5167 95.3576 26.7096C95.6242 26.7991 95.8982 26.8649 96.1765 26.9061C96.7496 26.9934 97.3327 26.9934 97.9059 26.9061C98.184 26.8647 98.458 26.7989 98.7247 26.7096C99.366 26.5145 99.9357 26.1347 100.362 25.6178C100.765 25.1055 101.045 24.508 101.181 23.8709C101.274 23.4854 101.347 23.0955 101.4 22.7027C101.453 22.3009 101.48 21.8961 101.479 21.4908C101.479 21.0928 101.452 20.6952 101.4 20.3007C101.347 19.9077 101.275 19.5178 101.181 19.1325C101.043 18.4926 100.764 17.8919 100.362 17.3747C99.9409 16.8543 99.3689 16.4768 98.7247 16.2938C98.458 16.2045 98.184 16.1387 97.9059 16.0973C97.6193 16.0537 97.3299 16.0318 97.0401 16.0318C96.751 16.0321 96.4623 16.054 96.1765 16.0973C95.8983 16.1385 95.6242 16.2043 95.3576 16.2938C94.7206 16.4852 94.157 16.8661 93.7418 17.3856C93.3497 17.9073 93.0637 18.5008 92.9 19.1325L92.8967 19.1107Z" fill="#FB6C00"/>
<path d="M79.2023 13.3263C79.2101 13.3339 79.2193 13.3398 79.2295 13.3438C79.2396 13.3477 79.2504 13.3496 79.2613 13.3492H80.2232C80.5243 13.3494 80.8253 13.3648 81.125 13.3951C81.6644 13.4263 82.2007 13.4993 82.7288 13.6134C83.2492 13.7237 83.7498 13.9122 84.2137 14.1724C85.011 14.5971 85.6429 15.2767 86.0086 16.1027C86.3633 16.9158 86.5529 17.7913 86.5665 18.6783C86.5847 19.4899 86.436 20.2967 86.1298 21.0486C85.8161 21.8151 85.2847 22.4729 84.6013 22.9407C84.0107 23.3462 83.3409 23.622 82.636 23.7497C81.9259 23.8797 81.2076 23.9596 80.4863 23.9888H79.3443L74.9967 23.9659V29.688H71.4102V13.3263H79.2023ZM79.1554 16.2447H74.9978V21.077H79.365C80.1457 21.097 80.9197 20.9288 81.6217 20.5868C81.9486 20.3966 82.2126 20.1151 82.3814 19.7767C82.5502 19.4384 82.6163 19.0581 82.5716 18.6827C82.6036 17.6345 82.267 16.9696 81.5617 16.6879C80.792 16.3949 79.9734 16.2515 79.1499 16.2654L79.1554 16.2447Z" fill="#FB6C00"/>
<path d="M172.754 13.3361V21.1686L179.45 13.3361H183.731L176.918 21.3062L183.803 29.6377H179.236L172.754 21.5311V29.6366H169.181V13.3361H172.754Z" fill="#FB6C00"/>
<path d="M192.759 13.3361H188.974L183.148 26.5785L185.596 29.5471L187.075 25.7542H194.458L196.019 29.6366H199.995L192.759 13.3361ZM188.24 22.8489L190.727 16.582L193.306 22.8478L188.24 22.8489Z" fill="#FB6C00"/>
</g>
<defs>
<clipPath id="clip0_1064_1811">
<rect width="200" height="40.1269" fill="white" transform="translate(0 0.936523)"/>
</clipPath>
</defs>
</svg>
