<svg width="18" height="20" viewBox="0 0 18 20" fill="none" xmlns="http://www.w3.org/2000/svg">
<path d="M13.6875 20H4.3125C2.15859 20 0.40625 18.2477 0.40625 16.0938V3.90625C0.40625 1.75234 2.15859 0 4.3125 0H12.3931C13.4365 0 14.4174 0.406328 15.1552 1.14414L16.4496 2.43855C17.1875 3.17637 17.5938 4.1573 17.5938 5.2007V5.46875C17.5938 5.90023 17.244 6.25 16.8125 6.25H13.6875C12.3952 6.25 11.3438 5.19859 11.3438 3.90625V1.5625H4.3125C3.02016 1.5625 1.96875 2.61391 1.96875 3.90625V16.0938C1.96875 17.3861 3.02016 18.4375 4.3125 18.4375H13.6875C14.9798 18.4375 16.0312 17.3861 16.0312 16.0938V8.59375C16.0312 8.16227 16.381 7.8125 16.8125 7.8125C17.244 7.8125 17.5938 8.16227 17.5938 8.59375V16.0938C17.5938 18.2477 15.8414 20 13.6875 20ZM12.9062 1.61852V3.90625C12.9062 4.33703 13.2567 4.6875 13.6875 4.6875H15.9752C15.8796 4.25742 15.6639 3.8625 15.3448 3.5434L14.0504 2.24898C13.7313 1.92988 13.3363 1.7141 12.9062 1.61852Z" fill="#727272"/>
<path d="M13.6875 13.75H12.9062V8.59375C12.9062 8.16227 12.5565 7.8125 12.125 7.8125C11.6935 7.8125 11.3438 8.16227 11.3438 8.59375V13.75H9.78125V10.1562C9.78125 9.72477 9.43148 9.375 9 9.375C8.56852 9.375 8.21875 9.72477 8.21875 10.1562V13.75H6.65625V11.7188C6.65625 11.2873 6.30648 10.9375 5.875 10.9375C5.44352 10.9375 5.09375 11.2873 5.09375 11.7188V13.75H4.3125C3.88102 13.75 3.53125 14.0998 3.53125 14.5312C3.53125 14.9627 3.88102 15.3125 4.3125 15.3125H13.6875C14.119 15.3125 14.4688 14.9627 14.4688 14.5312C14.4688 14.0998 14.119 13.75 13.6875 13.75Z" fill="#727272"/>
<path d="M7.4375 6.25H4.3125C3.88102 6.25 3.53125 5.90023 3.53125 5.46875C3.53125 5.03727 3.88102 4.6875 4.3125 4.6875H7.4375C7.86898 4.6875 8.21875 5.03727 8.21875 5.46875C8.21875 5.90023 7.86898 6.25 7.4375 6.25Z" fill="#727272"/>
</svg>
