<svg width="20" height="20" viewBox="0 0 20 20" fill="none" xmlns="http://www.w3.org/2000/svg">
<path d="M14.6875 20H5.3125C3.15859 20 1.40625 18.2477 1.40625 16.0938V3.90625C1.40625 1.75234 3.15859 0 5.3125 0H13.3931C14.4365 0 15.4174 0.406328 16.1552 1.14414L17.4496 2.43855C18.1875 3.17637 18.5938 4.1573 18.5938 5.2007V5.46875C18.5938 5.90023 18.244 6.25 17.8125 6.25H14.6875C13.3952 6.25 12.3438 5.19859 12.3438 3.90625V1.5625H5.3125C4.02016 1.5625 2.96875 2.61391 2.96875 3.90625V16.0938C2.96875 17.3861 4.02016 18.4375 5.3125 18.4375H14.6875C15.9798 18.4375 17.0312 17.3861 17.0312 16.0938V8.59375C17.0312 8.16227 17.381 7.8125 17.8125 7.8125C18.244 7.8125 18.5938 8.16227 18.5938 8.59375V16.0938C18.5938 18.2477 16.8414 20 14.6875 20ZM13.9062 1.61852V3.90625C13.9062 4.33703 14.2567 4.6875 14.6875 4.6875H16.9752C16.8796 4.25742 16.6639 3.8625 16.3448 3.5434L15.0504 2.24898C14.7313 1.92988 14.3363 1.7141 13.9062 1.61852Z" fill="#FB6C00"/>
<path d="M14.6875 13.75H13.9062V8.59375C13.9062 8.16227 13.5565 7.8125 13.125 7.8125C12.6935 7.8125 12.3438 8.16227 12.3438 8.59375V13.75H10.7812V10.1562C10.7812 9.72477 10.4315 9.375 10 9.375C9.56852 9.375 9.21875 9.72477 9.21875 10.1562V13.75H7.65625V11.7188C7.65625 11.2873 7.30648 10.9375 6.875 10.9375C6.44352 10.9375 6.09375 11.2873 6.09375 11.7188V13.75H5.3125C4.88102 13.75 4.53125 14.0998 4.53125 14.5312C4.53125 14.9627 4.88102 15.3125 5.3125 15.3125H14.6875C15.119 15.3125 15.4688 14.9627 15.4688 14.5312C15.4688 14.0998 15.119 13.75 14.6875 13.75Z" fill="#FB6C00"/>
<path d="M8.4375 6.25H5.3125C4.88102 6.25 4.53125 5.90023 4.53125 5.46875C4.53125 5.03727 4.88102 4.6875 5.3125 4.6875H8.4375C8.86898 4.6875 9.21875 5.03727 9.21875 5.46875C9.21875 5.90023 8.86898 6.25 8.4375 6.25Z" fill="#FB6C00"/>
</svg>
