<svg width="20" height="20" viewBox="0 0 20 20" fill="none" xmlns="http://www.w3.org/2000/svg">
<path d="M18.0596 16.7452L14.9125 13.6073C15.9279 12.3137 16.4788 10.7163 16.4768 9.07177C16.4768 7.6072 16.0425 6.17551 15.2288 4.95776C14.4151 3.74001 13.2586 2.79089 11.9055 2.23042C10.5525 1.66996 9.06356 1.52331 7.62712 1.80904C6.19069 2.09476 4.87124 2.80002 3.83563 3.83563C2.80002 4.87124 2.09476 6.19069 1.80904 7.62712C1.52331 9.06356 1.66996 10.5525 2.23042 11.9055C2.79089 13.2586 3.74001 14.4151 4.95776 15.2288C6.17551 16.0425 7.6072 16.4768 9.07177 16.4768C10.7163 16.4788 12.3137 15.9279 13.6073 14.9125L16.7452 18.0596C16.8313 18.1464 16.9336 18.2152 17.0464 18.2622C17.1592 18.3092 17.2802 18.3334 17.4024 18.3334C17.5246 18.3334 17.6456 18.3092 17.7584 18.2622C17.8712 18.2152 17.9736 18.1464 18.0596 18.0596C18.1464 17.9736 18.2152 17.8712 18.2622 17.7584C18.3092 17.6456 18.3334 17.5246 18.3334 17.4024C18.3334 17.2802 18.3092 17.1592 18.2622 17.0464C18.2152 16.9336 18.1464 16.8313 18.0596 16.7452ZM3.51801 9.07177C3.51801 7.97334 3.84373 6.89958 4.45398 5.98626C5.06424 5.07295 5.93162 4.36111 6.94644 3.94076C7.96126 3.52041 9.07793 3.41043 10.1553 3.62472C11.2326 3.83901 12.2222 4.36796 12.9989 5.14467C13.7756 5.92137 14.3045 6.91096 14.5188 7.98829C14.7331 9.06561 14.6231 10.1823 14.2028 11.1971C13.7824 12.2119 13.0706 13.0793 12.1573 13.6896C11.244 14.2998 10.1702 14.6255 9.07177 14.6255C7.59882 14.6255 6.1862 14.0404 5.14467 12.9989C4.10313 11.9573 3.51801 10.5447 3.51801 9.07177Z" fill="#969494"/>
</svg>
