<svg width="24" height="24" viewBox="0 0 24 24" fill="none" xmlns="http://www.w3.org/2000/svg">
<g clip-path="url(#clip0_1021_510)">
<path d="M11.625 16.8752C12.1428 16.8752 12.5625 17.2949 12.5625 17.8127C12.5625 18.3306 12.1428 18.7502 11.625 18.7502H10.3125C9.79468 18.7502 9.375 18.3306 9.375 17.8127C9.375 17.2949 9.79468 16.8752 10.3125 16.8752H11.625ZM19.3125 11.8596C19.3125 11.3418 18.8928 10.9221 18.375 10.9221H10.3125C9.79468 10.9221 9.375 11.3418 9.375 11.8596C9.375 12.3774 9.79468 12.7971 10.3125 12.7971H18.375C18.8928 12.7971 19.3125 12.3774 19.3125 11.8596ZM10.3125 7.17212H18.375C18.8928 7.17212 19.3125 6.75244 19.3125 6.23462C19.3125 5.7168 18.8928 5.29712 18.375 5.29712H10.3125C9.79468 5.29712 9.375 5.7168 9.375 6.23462C9.375 6.75244 9.79468 7.17212 10.3125 7.17212ZM6.5625 16.8752H5.625C5.10718 16.8752 4.6875 17.2949 4.6875 17.8127C4.6875 18.3306 5.10718 18.7502 5.625 18.7502H6.5625C7.08032 18.7502 7.5 18.3306 7.5 17.8127C7.5 17.2949 7.08032 16.8752 6.5625 16.8752ZM6.5625 10.9221H5.625C5.10718 10.9221 4.6875 11.3418 4.6875 11.8596C4.6875 12.3774 5.10718 12.7971 5.625 12.7971H6.5625C7.08032 12.7971 7.5 12.3774 7.5 11.8596C7.5 11.3418 7.08032 10.9221 6.5625 10.9221ZM6.5625 5.29712H5.625C5.10718 5.29712 4.6875 5.7168 4.6875 6.23462C4.6875 6.75244 5.10718 7.17212 5.625 7.17212H6.5625C7.08032 7.17212 7.5 6.75244 7.5 6.23462C7.5 5.7168 7.08032 5.29712 6.5625 5.29712ZM23.7255 22.3997C24.0916 22.7659 24.0916 23.3596 23.7255 23.7256C23.5424 23.9087 23.3024 24.0002 23.0625 24.0002C22.8226 24.0002 22.5826 23.9087 22.3995 23.7258L20.8136 22.1399C20.1821 22.5173 19.4442 22.7346 18.6562 22.7346C16.3301 22.7346 14.4375 20.842 14.4375 18.5159C14.4375 16.1897 16.3301 14.2971 18.6562 14.2971C20.9824 14.2971 22.875 16.1897 22.875 18.5159C22.875 19.3766 22.6157 20.1777 22.1713 20.8459L23.7255 22.3997ZM18.6562 20.8596C19.9486 20.8596 21 19.8082 21 18.5159C21 17.2235 19.9486 16.1721 18.6562 16.1721C17.3639 16.1721 16.3125 17.2235 16.3125 18.5159C16.3125 19.8082 17.3639 20.8596 18.6562 20.8596ZM20.25 0.000244141H3.75C1.68219 0.000244141 0 1.68243 0 3.75024V20.2502C0 22.3181 1.68219 24.0002 3.75 24.0002H13.4062C13.9241 24.0002 14.3438 23.5806 14.3438 23.0627C14.3438 22.5449 13.9241 22.1252 13.4062 22.1252H3.75C2.71619 22.1252 1.875 21.2841 1.875 20.2502V3.75024C1.875 2.71643 2.71619 1.87524 3.75 1.87524H20.25C21.2838 1.87524 22.125 2.71643 22.125 3.75024V13.0315C22.125 13.5493 22.5447 13.969 23.0625 13.969C23.5803 13.969 24 13.5493 24 13.0315V3.75024C24 1.68243 22.3178 0.000244141 20.25 0.000244141Z" fill="#727272"/>
</g>
<defs>
<clipPath id="clip0_1021_510">
<rect width="24" height="24" fill="white"/>
</clipPath>
</defs>
</svg>
