<svg width="24" height="24" viewBox="0 0 24 24" fill="none" xmlns="http://www.w3.org/2000/svg">
<g clip-path="url(#clip0_1021_501)">
<path d="M23.1769 7.09219C22.0804 5.99564 20.2961 5.99564 19.1995 7.09219L12.1687 14.123C11.006 15.2857 10.2817 16.7699 10.0783 18.375H9.21509C8.82814 17.2837 7.7855 16.5 6.56323 16.5C5.01242 16.5 3.75073 17.7617 3.75073 19.3125C3.75073 19.8303 4.17045 20.25 4.68823 20.25C5.20601 20.25 5.62573 19.8303 5.62573 19.3125C5.62573 18.7956 6.0463 18.375 6.56323 18.375C7.08017 18.375 7.50073 18.7956 7.50073 19.3125C7.50073 19.8303 7.92045 20.25 8.43823 20.25H10.9566C12.917 20.25 14.7601 19.4866 16.1462 18.1004C16.5504 17.6962 22.775 11.4716 23.177 11.0696C24.2735 9.97308 24.2735 8.18878 23.1769 7.09219ZM14.8203 16.7746C14.0366 17.5584 13.0567 18.0747 11.9913 18.2778C12.1944 17.2125 12.7108 16.2326 13.4945 15.4488L17.5857 11.3576L18.9115 12.6834L14.8203 16.7746ZM21.8512 9.74386L20.2374 11.3576L18.9116 10.0317L20.5253 8.418C20.8909 8.05247 21.4856 8.05247 21.8512 8.418C22.2175 8.78437 22.2176 9.37739 21.8512 9.74386Z" fill="#727272"/>
<path d="M17.8132 19.4594C17.2955 19.4594 16.8757 19.8791 16.8757 20.3969V21.1875C16.8757 21.7044 16.4552 22.125 15.9382 22.125H2.81323C2.29629 22.125 1.87573 21.7044 1.87573 21.1875V2.8125C1.87573 2.29556 2.29629 1.875 2.81323 1.875H13.2866C13.537 1.875 13.7724 1.97255 13.9495 2.14959L16.6012 4.80127C16.7141 4.91419 16.7968 5.05514 16.8403 5.20889C16.9814 5.70708 17.4996 5.99662 17.9978 5.85558C18.496 5.71453 18.7855 5.19637 18.6445 4.69819C18.5139 4.23703 18.2658 3.81422 17.927 3.47545L15.2753 0.823781C14.7441 0.292547 14.0378 0 13.2866 0H2.81323C1.26242 0 0.000732422 1.26169 0.000732422 2.8125V21.1875C0.000732422 22.7383 1.26242 24 2.81323 24H15.9382C17.489 24 18.7507 22.7383 18.7507 21.1875V20.3969C18.7507 19.8791 18.331 19.4594 17.8132 19.4594Z" fill="#727272"/>
<path d="M10.3132 7.5H4.68823C4.17045 7.5 3.75073 7.08028 3.75073 6.5625C3.75073 6.04472 4.17045 5.625 4.68823 5.625H10.3132C10.831 5.625 11.2507 6.04472 11.2507 6.5625C11.2507 7.08028 10.831 7.5 10.3132 7.5Z" fill="#727272"/>
<path d="M10.3132 11.25H4.68823C4.17045 11.25 3.75073 10.8303 3.75073 10.3125C3.75073 9.79472 4.17045 9.375 4.68823 9.375H10.3132C10.831 9.375 11.2507 9.79472 11.2507 10.3125C11.2507 10.8303 10.831 11.25 10.3132 11.25Z" fill="#727272"/>
</g>
<defs>
<clipPath id="clip0_1021_501">
<rect width="24" height="24" fill="white"/>
</clipPath>
</defs>
</svg>
