<svg width="48" height="48" viewBox="0 0 48 48" fill="none" xmlns="http://www.w3.org/2000/svg">
<rect width="48" height="48" rx="10" fill="#FB6C00"/>
<path d="M31.635 32.385C31.8339 32.385 32.0247 32.306 32.1653 32.1653C32.306 32.0247 32.385 31.8339 32.385 31.635V29.3025C32.9925 29.1396 33.5293 28.7808 33.9121 28.2818C34.2949 27.7828 34.5024 27.1714 34.5024 26.5425C34.5024 25.9135 34.2949 25.3022 33.9121 24.8032C33.5293 24.3041 32.9925 23.9454 32.385 23.7825V16.365C32.385 16.1661 32.306 15.9753 32.1653 15.8347C32.0247 15.694 31.8339 15.615 31.635 15.615C31.4361 15.615 31.2453 15.694 31.1047 15.8347C30.964 15.9753 30.885 16.1661 30.885 16.365V23.79C30.2775 23.9529 29.7407 24.3116 29.3579 24.8107C28.9751 25.3097 28.7676 25.921 28.7676 26.55C28.7676 27.1789 28.9751 27.7903 29.3579 28.2893C29.7407 28.7883 30.2775 29.1471 30.885 29.31V31.6425C30.887 31.8401 30.9669 32.0289 31.1073 32.168C31.2477 32.307 31.4374 32.385 31.635 32.385ZM30.2625 26.5425C30.2625 26.271 30.343 26.0057 30.4938 25.78C30.6446 25.5543 30.859 25.3783 31.1098 25.2745C31.3606 25.1706 31.6365 25.1434 31.9028 25.1964C32.169 25.2493 32.4136 25.38 32.6055 25.572C32.7975 25.7639 32.9282 26.0085 32.9811 26.2747C33.0341 26.541 33.0069 26.8169 32.903 27.0677C32.7991 27.3185 32.6232 27.5329 32.3975 27.6837C32.1718 27.8345 31.9065 27.915 31.635 27.915C31.271 27.915 30.9219 27.7704 30.6645 27.513C30.4071 27.2556 30.2625 26.9065 30.2625 26.5425Z" fill="white"/>
<path d="M23.9999 32.3851C24.1989 32.3851 24.3896 32.3061 24.5303 32.1654C24.6709 32.0248 24.7499 31.834 24.7499 31.6351V21.2401C25.4221 21.0583 26.0053 20.6385 26.3912 20.0589C26.777 19.4792 26.9391 18.7792 26.8474 18.0889C26.7557 17.3987 26.4164 16.7653 25.8926 16.3065C25.3689 15.8477 24.6963 15.5947 23.9999 15.5947C23.3036 15.5947 22.631 15.8477 22.1073 16.3065C21.5835 16.7653 21.2442 17.3987 21.1525 18.0889C21.0608 18.7792 21.2229 19.4792 21.6087 20.0589C21.9946 20.6385 22.5778 21.0583 23.2499 21.2401V31.6351C23.2499 31.834 23.329 32.0248 23.4696 32.1654C23.6103 32.3061 23.801 32.3851 23.9999 32.3851ZM22.6274 18.4876C22.626 18.2158 22.7052 17.9497 22.8551 17.723C23.005 17.4963 23.2188 17.3193 23.4695 17.2142C23.7202 17.1092 23.9964 17.0809 24.2631 17.1331C24.5298 17.1852 24.7751 17.3153 24.9678 17.5069C25.1605 17.6986 25.2919 17.9431 25.3455 18.2096C25.3991 18.476 25.3723 18.7523 25.2687 19.0036C25.165 19.2548 24.9891 19.4696 24.7632 19.6207C24.5374 19.7719 24.2717 19.8526 23.9999 19.8526C23.6372 19.8526 23.2893 19.709 23.0321 19.4532C22.7749 19.1975 22.6294 18.8503 22.6274 18.4876Z" fill="white"/>
<path d="M15.615 26.76V31.635C15.615 31.8339 15.694 32.0247 15.8347 32.1653C15.9753 32.306 16.1661 32.385 16.365 32.385C16.5639 32.385 16.7547 32.306 16.8953 32.1653C17.036 32.0247 17.115 31.8339 17.115 31.635V26.76C17.7225 26.5971 18.2592 26.2383 18.6421 25.7393C19.0249 25.2403 19.2324 24.6289 19.2324 24C19.2324 23.371 19.0249 22.7597 18.6421 22.2607C18.2592 21.7616 17.7225 21.4029 17.115 21.24V16.365C17.115 16.1661 17.036 15.9753 16.8953 15.8347C16.7547 15.694 16.5639 15.615 16.365 15.615C16.1661 15.615 15.9753 15.694 15.8347 15.8347C15.694 15.9753 15.615 16.1661 15.615 16.365V21.24C15.0075 21.4029 14.4707 21.7616 14.0879 22.2607C13.7051 22.7597 13.4976 23.371 13.4976 24C13.4976 24.6289 13.7051 25.2403 14.0879 25.7393C14.4707 26.2383 15.0075 26.5971 15.615 26.76ZM16.365 22.6275C16.6368 22.626 16.9028 22.7052 17.1295 22.8551C17.3562 23.0051 17.5333 23.2189 17.6383 23.4695C17.7434 23.7202 17.7716 23.9964 17.7195 24.2631C17.6674 24.5299 17.5373 24.7751 17.3456 24.9678C17.154 25.1605 16.9095 25.292 16.643 25.3455C16.3766 25.3991 16.1002 25.3724 15.849 25.2687C15.5978 25.1651 15.383 24.9892 15.2318 24.7633C15.0807 24.5374 15 24.2718 15 24C15 23.6373 15.1436 23.2893 15.3993 23.0321C15.6551 22.7749 16.0023 22.6295 16.365 22.6275Z" fill="white"/>
</svg>
